<svg width="46" height="46" viewBox="0 0 46 46" fill="none" xmlns="http://www.w3.org/2000/svg">
<path d="M40 0H6C2.68629 0 0 2.68629 0 6V40C0 43.3137 2.68629 46 6 46H40C43.3137 46 46 43.3137 46 40V6C46 2.68629 43.3137 0 40 0Z" fill="#00A651"/>
<path opacity="0.2" d="M23 40.25C32.5269 40.25 40.25 32.5269 40.25 23C40.25 13.4731 32.5269 5.75 23 5.75C13.4731 5.75 5.75 13.4731 5.75 23C5.75 32.5269 13.4731 40.25 23 40.25Z" fill="#00A651"/>
<path d="M23 12.9375V15.8125" stroke="black" stroke-width="2" stroke-linecap="round" stroke-linejoin="round"/>
<path d="M23 30.1875V33.0625" stroke="black" stroke-width="2" stroke-linecap="round" stroke-linejoin="round"/>
<path d="M23 40.25C32.5269 40.25 40.25 32.5269 40.25 23C40.25 13.4731 32.5269 5.75 23 5.75C13.4731 5.75 5.75 13.4731 5.75 23C5.75 32.5269 13.4731 40.25 23 40.25Z" fill="white" stroke="black" stroke-width="2" stroke-linecap="round" stroke-linejoin="round"/>
<path d="M18.6875 30.1875H25.1562C26.1094 30.1875 27.0235 29.8089 27.6974 29.1349C28.3714 28.461 28.75 27.5469 28.75 26.5938C28.75 25.6406 28.3714 24.7265 27.6974 24.0526C27.0235 23.3786 26.1094 23 25.1562 23H20.8438C19.8906 23 18.9765 22.6214 18.3026 21.9474C17.6286 21.2735 17.25 20.3594 17.25 19.4062C17.25 18.4531 17.6286 17.539 18.3026 16.8651C18.9765 16.1911 19.8906 15.8125 20.8438 15.8125H27.3125" fill="white"/>
<path d="M18.6875 30.1875H25.1562C26.1094 30.1875 27.0235 29.8089 27.6974 29.1349C28.3714 28.461 28.75 27.5469 28.75 26.5938C28.75 25.6406 28.3714 24.7265 27.6974 24.0526C27.0235 23.3786 26.1094 23 25.1562 23H20.8438C19.8906 23 18.9765 22.6214 18.3026 21.9474C17.6286 21.2735 17.25 20.3594 17.25 19.4062C17.25 18.4531 17.6286 17.539 18.3026 16.8651C18.9765 16.1911 19.8906 15.8125 20.8438 15.8125H27.3125" stroke="black" stroke-width="2" stroke-linecap="round" stroke-linejoin="round"/>
</svg>
