<svg width="80" height="30" viewBox="0 0 80 30" fill="none" xmlns="http://www.w3.org/2000/svg">
<g clip-path="url(#clip0_81_11)">
<path d="M0.0243378 0V3.93414H79.9381V0H0.0243378ZM22.4483 7.50793C20.9292 7.50793 20.1245 9.08389 20.1245 11.8322C20.1245 13.313 20.3532 14.398 20.7741 15.0447C21.1659 15.6261 21.6168 15.8423 22.0985 16.096C23.2118 16.6725 23.7099 16.9291 23.7099 18.2283C23.7099 19.4199 23.3445 19.9994 22.623 19.9994C21.7963 19.9994 21.3513 19.3363 21.2614 17.7478H20.037C20.0977 20.7105 20.976 22.4921 22.5106 22.4921C24.0593 22.4921 24.9092 20.7604 24.9092 17.868C24.9092 16.4237 24.6645 15.331 24.1844 14.6843C23.8087 14.1779 23.3445 13.9088 22.7733 13.5437C21.7803 12.9671 21.3238 12.9882 21.3238 11.6516C21.3238 10.5686 21.6776 9.90935 22.3232 9.90935C23.0759 9.90935 23.4904 10.6349 23.5352 12.0427H24.7217C24.6753 9.18671 23.8482 7.50697 22.4483 7.50697V7.50793ZM77.4896 7.50793C75.9861 7.50793 75.1786 9.08389 75.1786 11.8322C75.1786 13.313 75.404 14.398 75.8406 15.0447C76.2323 15.6261 76.6833 15.8423 77.165 16.096C78.2627 16.6725 78.7516 16.9291 78.7516 18.2283C78.7516 19.4199 78.4142 19.9994 77.677 19.9994C76.8484 19.9994 76.3926 19.3363 76.3027 17.7478H75.0786C75.1546 20.7105 76.03 22.4921 77.5647 22.4921C79.113 22.4921 79.9756 20.7604 79.9756 17.868C79.9756 16.4237 79.7342 15.331 79.2385 14.6843C78.8623 14.1779 78.3982 13.9088 77.827 13.5437C76.8344 12.9671 76.3778 12.9882 76.3778 11.6516C76.3778 10.5686 76.744 9.90935 77.3896 9.90935C78.1268 9.90935 78.5297 10.6349 78.5765 12.0427H79.7634C79.7182 9.18671 78.9035 7.50697 77.4896 7.50697V7.50793ZM7.04486 7.56751C5.24116 7.56751 4.10945 10.4552 4.10945 15.0447C4.10945 19.638 5.24076 22.4921 7.04526 22.4921C8.83537 22.4921 9.98067 19.638 9.98067 15.0447C9.98067 10.4552 8.83537 7.56751 7.04526 7.56751H7.04486ZM55.828 7.56751C53.9479 7.56751 52.9173 10.1976 52.9173 15.0447C52.9173 19.8129 53.9671 22.4921 55.7276 22.4921C57.2919 22.4921 58.2988 20.4164 58.3888 17.2376H57.1895C57.0392 18.9346 56.5555 19.8802 55.8028 19.8802C54.7674 19.8802 54.179 18.1534 54.179 15.0447C54.179 11.862 54.7454 10.1496 55.828 10.1496C56.6099 10.1496 57.0716 11.0193 57.1771 12.6125H58.3888C58.2988 9.42983 57.3762 7.56751 55.828 7.56751V7.56751ZM0.0243378 7.92786V22.1019H4.1842V19.4891H1.24839V7.92786H0.0243378ZM12.8042 7.92786V17.8074C12.8042 19.3968 12.6854 20.0301 12.1294 20.0301C11.6632 20.0301 11.405 19.5746 11.405 18.5579V16.8474H10.2057V17.9275C10.2057 19.3017 10.2181 20.2338 10.5927 21.1708C10.9397 22.0385 11.4654 22.4921 12.1418 22.4921C12.8789 22.4921 13.453 21.9924 13.7536 21.0506C14.0402 20.1839 14.0534 19.2239 14.0534 17.9583V7.92786H12.8042ZM16.4267 7.92786L14.2908 22.1019H15.6021L15.9898 19.1893H18.3256L18.7253 22.1019H20.0246L17.8635 7.92786H17.1515H16.4267ZM29.7314 7.92786L27.5951 22.1019H28.882L29.2689 19.1893H31.6051L32.0049 22.1019H33.3041L31.1554 7.92786H30.4306H29.7314ZM33.6039 7.92786V22.1019H34.7656V10.6608L35.9904 22.1019H37.2645L38.4761 10.6608V22.1019H39.6382V7.92786H37.8013L36.6268 18.7386L35.4276 7.92786H33.6039ZM40.3622 7.92786V22.1019H44.8718V19.4891H41.5738V15.8269H44.4473V13.4245H41.5738V10.3591H44.7223V7.92786H40.3622ZM45.4715 7.92786V22.1019H46.7211V16.6062H48.0327C48.7095 16.6062 48.9042 17.1645 48.9198 18.8289L48.9318 20.3299C48.9457 21.0891 48.9921 21.7041 49.0821 22.1019H50.4312V21.6512C50.205 21.3649 50.2094 20.8902 50.1938 20.0599L50.1814 18.408C50.1502 16.7071 50.0031 15.7846 49.4318 15.3157C50.0035 14.8467 50.3189 13.6869 50.3189 11.9523C50.3189 9.20401 49.7033 7.92786 48.3949 7.92786H47.8952H45.4715ZM50.9933 7.92786V22.1019H52.2301V7.92786H50.9933ZM60.4 7.92786L58.2513 22.1019H59.5629L59.9506 19.1893H62.2864L62.6862 22.1019H63.9854L61.8367 7.92786H61.1119H60.4ZM64.2728 7.92786V22.1019H65.4969V12.3723L67.9578 22.1019H69.2322V7.92786H68.0205V17.6873L65.5844 7.92786H64.2728ZM71.6559 7.92786L69.5196 22.1019H70.8064L71.2062 19.1893H73.5296L73.9417 22.1019H75.2409L73.0798 7.92786H72.3679H71.6559ZM7.04526 10.09C8.09822 10.09 8.73144 11.8995 8.73144 15.0447C8.73144 18.1908 8.09822 19.9398 7.04526 19.9398C5.9923 19.9398 5.35829 18.1908 5.35829 15.0447C5.35829 11.8659 5.9919 10.09 7.04526 10.09ZM46.7211 10.36H48.2202C48.7914 10.36 49.0821 11.0231 49.0821 12.2522C49.0821 13.5552 48.7894 14.1443 48.1574 14.1443H46.7207L46.7211 10.36ZM17.1511 10.7809L17.9758 16.8167H16.3144L17.1511 10.7809ZM30.431 10.7809L31.2677 16.8167H29.6063L30.431 10.7809ZM61.1123 10.7809L61.949 16.8167H60.2876L61.1123 10.7809ZM72.3679 10.7809L73.205 16.8167H71.5308L72.3679 10.7809ZM0.0243378 26.0659V30H79.9381V26.0659H0.0243378Z" fill="#EA1D2A"/>
</g>
<defs>
<clipPath id="clip0_81_11">
<rect width="80" height="30" fill="white"/>
</clipPath>
</defs>
</svg>
