<svg width="80" height="50" viewBox="0 0 80 50" fill="none" xmlns="http://www.w3.org/2000/svg">
<path d="M28.2982 0.8402C26.9092 1.6461 26.5096 2.02333 26.5096 2.50344C26.5096 2.76064 26.3574 3.03499 26.1291 3.17216C25.7295 3.39507 25.6153 4.04665 25.9388 4.33814C26.091 4.47532 25.9197 4.66393 25.406 4.95543C23.5794 6.05282 21.7147 8.12758 20.9726 9.8937C20.7633 10.391 20.535 11.4369 20.4779 12.2085C19.9451 18.9815 26.3193 24.0055 36.6893 25C42.9683 25.6001 49.7991 24.2284 53.8139 21.5535C55.298 20.559 57.0676 18.7243 57.7906 17.4211C58.6849 15.8265 58.9132 14.6605 58.8181 12.38C58.742 10.631 58.6849 10.4081 58.038 9.15639C57.2388 7.68176 55.6215 6.00138 54.0993 5.07545C53.2811 4.56105 53.167 4.44102 53.2621 4.04665C53.3572 3.61798 52.9767 3.03499 52.5961 3.03499C52.52 3.03499 52.482 2.81208 52.5391 2.53773C52.5961 2.10906 52.482 1.95474 51.5877 1.37175C49.5708 0.017156 49.3805 8.16414e-06 48.0676 1.18314L47.0782 2.05762L45.5941 1.78327C41.8457 1.06311 37.8309 1.06311 33.6829 1.78327L32.0085 2.07477L31.0191 1.18314C30.4673 0.685879 29.8394 0.291504 29.6301 0.291504C29.4208 0.291504 28.8119 0.531558 28.2982 0.8402V0.8402ZM34.6343 6.20714C35.1671 7.15021 35.9472 8.65913 36.3658 9.55076C36.7844 10.4424 37.5265 12.0199 38.0212 13.0487C39.4102 16.0151 39.3721 16.9753 37.7928 17.4554C36.5941 17.8327 28.4123 17.7812 26.091 17.3868C24.6639 17.1296 24.1692 17.1125 23.8458 17.2668C23.5033 17.4211 23.3701 17.404 23.0656 17.1639C22.1333 16.4095 20.8394 13.0487 21.2961 12.6372C21.4293 12.5172 22.3616 12.4486 23.5223 12.4486C26.4145 12.4486 29.573 13.1344 33.5878 14.6091C33.9113 14.7291 33.9113 14.6948 33.6258 14.0775C33.3975 13.5974 33.2643 12.5343 33.1692 10.4081C33.055 7.90467 32.9599 7.2531 32.5984 6.46434C32.0466 5.19548 31.9705 5.14404 30.8288 5.04116C30.277 4.98972 29.3257 4.80111 28.6977 4.61249C28.0698 4.40673 27.3278 4.21812 27.0424 4.14953C26.7379 4.09809 26.5096 3.94377 26.5096 3.82374C26.5096 3.63513 26.6618 3.61798 27.3278 3.7723C27.7654 3.87518 28.4504 3.94377 28.869 3.92662C29.4018 3.90947 29.7443 4.01235 30.1629 4.321C30.6576 4.69823 31.0762 4.86969 31.0762 4.68108C31.0762 4.64678 30.7337 4.30385 30.296 3.90947C29.6301 3.32648 29.535 3.13787 29.6491 2.74349C29.7633 2.33197 29.7443 2.31482 29.4588 2.52058C29.1734 2.72635 29.0973 2.72635 28.888 2.46914C28.6597 2.1948 28.6407 2.21194 28.5646 2.58917C28.4884 2.91496 28.5646 3.03499 28.85 3.06928C29.4398 3.15502 29.4398 3.49795 28.869 3.61798C28.4504 3.72086 28.2411 3.63513 27.7273 3.18931C27.3658 2.88067 27.0804 2.57203 27.0804 2.48629C27.0804 2.34912 28.9261 1.08026 29.3637 0.925934C29.554 0.874494 30.3151 1.44034 31.666 2.65776C33.3785 4.23526 33.7971 4.73252 34.6343 6.20714V6.20714ZM51.4926 2.02333L52.1014 2.50344L51.4164 3.12072C50.8456 3.63513 50.6554 3.72086 50.2177 3.61798C49.6469 3.49795 49.6469 3.15502 50.2368 3.06928C50.5222 3.03499 50.5983 2.91496 50.5222 2.58917C50.4461 2.21194 50.427 2.1948 50.1987 2.46914C49.9894 2.72635 49.9133 2.72635 49.6279 2.52058C49.3425 2.31482 49.3234 2.33197 49.4376 2.7092C49.5327 3.03499 49.3995 3.29219 48.7907 3.87518C48.353 4.30385 48.0105 4.66393 48.0105 4.69822C48.0105 4.86969 48.4291 4.69823 48.9429 4.30385C49.3995 3.96091 49.6469 3.89233 50.0845 3.97806C50.408 4.0295 50.8076 4.01235 50.9978 3.92662C51.1881 3.84089 51.6257 3.72086 51.9682 3.66942C52.4249 3.58368 52.5771 3.61798 52.5771 3.80659C52.5771 3.94377 52.3488 4.09809 52.0634 4.14953C51.7589 4.20097 50.8837 4.42388 50.1036 4.66393C49.3044 4.90399 48.353 5.0926 47.9915 5.0926C47.1163 5.0926 46.8118 5.40124 46.2981 6.89301C45.9746 7.85323 45.8795 8.60769 45.8414 10.6653C45.8034 12.4486 45.6892 13.4602 45.4799 13.9746C45.2135 14.6605 45.2135 14.7119 45.4989 14.5919C49.4947 13.083 54.8794 12.0542 57.2388 12.3628C58.057 12.4829 58.0951 12.5172 58.0951 13.0316C58.0951 14.2661 57.2959 16.0837 56.2494 17.2497C55.8879 17.644 55.8689 17.644 55.3551 17.3525C54.8794 17.0611 54.7843 17.0611 53.2811 17.3525C51.3403 17.7126 45.6512 17.8841 42.8922 17.644C41.0465 17.4897 40.8563 17.4383 40.4376 16.9925C39.7717 16.3066 39.9239 15.415 41.1417 12.8087C42.5687 9.79082 44.3192 6.29288 44.8901 5.3498C45.4038 4.5439 47.0782 2.81208 48.5814 1.54322L49.4376 0.823054L50.1606 1.20028C50.5602 1.3889 51.1501 1.76613 51.4926 2.02333V2.02333ZM44.5856 2.24624C45.4418 2.38341 46.2029 2.53773 46.26 2.60632C46.3171 2.65776 46.1078 2.94925 45.7843 3.2579C44.9471 4.0638 44.4905 4.73252 43.5581 6.4129C42.4926 8.38478 39.6385 14.4033 39.6385 14.7119C39.6385 14.9349 38.4778 12.6372 37.4123 10.2366C35.9282 6.92731 34.425 4.38958 33.2072 3.18931C32.6745 2.65776 32.7125 2.62347 34.2157 2.34912C37.1079 1.80042 41.4842 1.76613 44.5856 2.24624V2.24624ZM29.2495 5.36695C29.9726 5.58986 30.8098 5.77847 31.0952 5.77847C31.5519 5.77847 31.666 5.8985 32.0275 6.75584C32.351 7.52744 32.4652 8.23046 32.5223 9.80796C32.5793 10.9397 32.6364 12.26 32.6554 12.7401L32.7125 13.6317L31.4757 13.203C28.8309 12.3114 26.3954 11.8999 23.7126 11.8827L21.201 11.8656L21.2961 11.4369C21.8859 9.00207 23.2559 7.20166 25.8246 5.50412C27.0614 4.66393 26.9853 4.66393 29.2495 5.36695V5.36695ZM53.224 5.26407C54.4608 5.96709 55.8308 7.25309 56.7631 8.5391C57.4672 9.51647 57.6384 9.8937 58.019 11.2997L58.1331 11.7798H56.1162C53.7568 11.7798 51.2452 12.1914 48.3911 13.0144L46.3932 13.5974L46.4503 11.1111C46.5074 8.79631 46.7167 7.44171 47.2304 6.24143C47.3826 5.88135 47.5539 5.77847 47.9725 5.77847C48.2769 5.77847 48.9048 5.65845 49.3615 5.50412C50.3129 5.19548 51.816 4.78396 52.1205 4.76681C52.2156 4.74967 52.7293 4.98972 53.224 5.26407V5.26407ZM40.685 17.9184C41.3129 18.2099 46.3932 18.5185 48.6955 18.4156C49.8562 18.3642 51.7209 18.1756 52.8245 18.0213C54.4799 17.7812 54.9175 17.7641 55.1078 17.9355C55.6025 18.3985 52.1395 20.5761 49.3425 21.5364C42.7209 23.834 34.5962 23.5597 28.4884 20.8676C26.2432 19.8731 23.6935 18.1927 24.017 17.9012C24.1692 17.7641 24.5878 17.7641 25.5202 17.9184C28.869 18.4328 31.2094 18.5357 34.6153 18.3299C37.926 18.1242 38.6871 17.9698 39.2579 17.3525C39.4863 17.1125 39.5434 17.1125 39.9049 17.404C40.1332 17.5926 40.4757 17.8155 40.685 17.9184ZM59.6934 28.5837C58.9513 28.858 58.6659 29.4239 58.6659 30.727C58.6469 31.6701 58.6088 31.8587 58.4566 31.6187C58.1902 31.2071 57.1437 30.8128 56.3445 30.8128C55.3171 30.8128 54.1564 31.4472 53.5856 32.3045C52.9196 33.3333 52.7484 35.4081 53.224 36.5569C53.871 38.083 55.2029 38.666 57.6955 38.4945C58.5517 38.4431 58.9893 38.3059 59.5031 37.9458C60.797 37.0542 60.854 36.8484 60.854 32.4417C60.854 28.618 60.835 28.498 60.4735 28.4637C60.2642 28.4465 59.9027 28.498 59.6934 28.5837V28.5837ZM57.9999 32.9218C58.9323 33.642 58.9893 35.6996 58.0951 36.5741C57.4862 37.1399 56.3445 37.1399 55.7357 36.5912C54.8794 35.8196 54.8794 33.7963 55.7166 32.9733C56.3065 32.3903 57.2959 32.3731 57.9999 32.9218ZM10.8881 31.2929C9.57522 32.0473 9.38495 32.6303 9.38495 35.8882V38.546L10.2983 38.4945L11.1926 38.4431L11.2877 35.9568C11.3448 34.5851 11.4589 33.3505 11.535 33.1962C11.7063 32.9047 12.4674 32.5274 12.905 32.5274C13.0572 32.5274 13.3997 32.7161 13.6851 32.939C14.2179 33.3333 14.2179 33.3505 14.256 35.8882L14.313 38.4431H16.1397L16.2348 35.8196C16.3299 33.4362 16.368 33.1619 16.7105 32.939C17.3765 32.4931 17.9473 32.4589 18.48 32.8189C18.9938 33.1619 18.9938 33.179 19.0889 35.8025L19.1841 38.4431H21.0868L21.1439 36.0768C21.1629 34.7737 21.1058 33.4191 20.9917 33.0247C20.7253 32.1502 19.812 31.2243 18.9557 30.9671C18.0234 30.6927 16.5202 30.8642 15.8352 31.31L15.2644 31.6873L14.6746 31.2929C14.2369 31.0185 13.7232 30.8985 12.905 30.8471C11.8966 30.7956 11.6682 30.8471 10.8881 31.2929V31.2929ZM24.5498 31.07C22.5709 31.6873 21.6196 33.762 22.1904 36.1626C22.7802 38.6831 27.2136 39.5233 29.2495 37.5C29.6301 37.1228 29.9345 36.7284 29.9345 36.6427C29.9345 36.3683 27.8035 36.4541 27.3849 36.7284C27.1756 36.8656 26.6238 36.9856 26.1671 36.9856C25.5011 36.9856 25.2348 36.8827 24.7781 36.4884C24.4737 36.214 24.2263 35.8196 24.2263 35.631C24.2263 35.2881 24.3214 35.2709 27.1946 35.2709H30.1819L30.0867 34.1735C29.8584 31.6015 27.3087 30.1783 24.5498 31.07V31.07ZM27.3849 32.8875C27.6322 33.1104 27.8415 33.4191 27.8415 33.5905C27.8415 33.8649 27.6512 33.8992 26.0339 33.8992C25.0445 33.8992 24.2263 33.8477 24.2263 33.762C24.2453 33.4534 24.7781 32.8018 25.1967 32.5789C25.8056 32.2702 26.8331 32.4246 27.3849 32.8875ZM33.8351 31.0185C32.9409 31.31 32.0656 31.9787 31.647 32.6818C31.3426 33.2305 31.2664 33.762 31.2284 35.8882L31.1713 38.4431H33.2643L33.3595 36.0254C33.4736 33.179 33.5878 32.939 35.0719 32.7675L35.9662 32.6646L35.9282 31.9445C35.8901 31.5672 35.8711 31.1386 35.852 31.0185C35.833 30.7613 34.6533 30.7613 33.8351 31.0185V31.0185ZM38.6871 31.07C36.8034 31.8416 35.9091 33.7277 36.4038 35.8882C36.5941 36.6941 36.8034 37.037 37.4313 37.6029C39.296 39.3004 42.797 38.8375 43.9006 36.7456C44.4144 35.7853 44.3383 35.6996 43.0634 35.6996C42.3404 35.6996 41.9218 35.7682 41.9218 35.8882C41.9218 35.9911 41.7505 36.2826 41.5222 36.5398C40.9324 37.2085 39.8478 37.1742 39.1818 36.4541C38.7632 36.0082 38.6871 35.7682 38.6871 34.8251C38.6871 34.1735 38.8013 33.5048 38.9725 33.2305C39.5053 32.2702 41.1417 32.1845 41.7125 33.059C41.9979 33.522 42.1121 33.5563 43.1395 33.5563H44.2621L44.129 32.9904C43.9767 32.2874 43.463 31.6701 42.6829 31.2586C41.8457 30.8128 39.6004 30.7099 38.6871 31.07V31.07ZM46.7357 31.1386C45.9366 31.4643 45.518 31.9787 45.2706 32.9047C45.1564 33.3848 45.1564 33.3848 46.1459 33.3848C47.0592 33.3848 47.1924 33.3333 47.4778 32.8704C47.7632 32.4246 47.9154 32.356 48.6575 32.356C49.5137 32.356 50.1036 32.6646 50.1036 33.1104C50.1036 33.522 49.5898 33.7449 48.296 33.9163C45.8985 34.225 45.1374 34.7394 45.0042 36.1969C44.9662 36.7113 45.0232 37.2771 45.1374 37.4829C45.6702 38.3745 47.2304 38.7689 49.1522 38.5117C50.5792 38.3059 51.4926 37.8258 51.9112 37.037C52.2727 36.3512 52.3107 32.6475 51.9492 32.013C51.3594 30.9156 48.4672 30.4355 46.7357 31.1386V31.1386ZM50.0465 35.6482C49.9133 36.5569 49.2283 37.1571 48.296 37.1571C47.2495 37.1571 46.7357 36.4198 47.3065 35.7167C47.5539 35.4253 49.019 34.9623 49.7991 34.9451C50.1036 34.928 50.1416 35.0137 50.0465 35.6482V35.6482ZM63.6701 31.1728C62.243 31.8073 61.4058 33.4019 61.5771 35.1338C61.7673 37.0028 63.0993 38.3402 65.0401 38.5974C66.1817 38.7517 67.7229 38.4088 68.465 37.8258C70.6151 36.1111 70.2345 32.3045 67.799 31.19C66.6764 30.6756 64.7927 30.6584 63.6701 31.1728ZM66.6384 32.596C67.3233 32.9218 67.6088 33.5391 67.6088 34.6879C67.6088 36.214 66.9809 36.9856 65.706 36.9856C64.9069 36.9856 64.4312 36.7284 64.0887 36.1283C63.7462 35.511 63.7272 33.7963 64.0697 33.2305C64.5644 32.4246 65.668 32.1502 66.6384 32.596V32.596ZM26.9472 39.9177C25.7675 40.2263 25.7295 40.3978 25.7866 45.3189L25.8436 49.76L26.8521 49.8114L27.8415 49.8628V44.8045C27.8415 42.0096 27.7844 39.7291 27.7083 39.7462C27.6132 39.7462 27.2707 39.832 26.9472 39.9177V39.9177ZM29.554 40.7236V41.7181H30.6005L31.647 41.7353V39.7291H29.554V40.7236ZM43.3298 42.3183C42.3023 42.5412 41.0846 43.5014 40.685 44.4102C40.4567 44.976 40.3996 45.6447 40.4376 47.4451L40.4947 49.76L41.4842 49.8114L42.4545 49.8628L42.5307 47.4451C42.5877 45.0274 42.5877 45.0103 43.1205 44.5988C43.482 44.3073 43.8816 44.1873 44.4144 44.1873H45.1564V43.1584C45.1564 42.1468 45.1564 42.1296 44.6427 42.1468C44.3383 42.1639 43.7674 42.2325 43.3298 42.3183V42.3183ZM48.0296 42.3868C46.222 42.9012 45.1755 44.5816 45.4228 46.6221C45.5941 48.1482 46.1649 48.9369 47.63 49.5885C48.5243 50 50.5412 50 51.4164 49.5885C52.1395 49.2627 53.1479 48.3368 53.1479 48.011C53.1479 47.6852 50.9788 47.7023 50.6744 48.0453C50.389 48.3539 48.9429 48.3882 48.353 48.1139C48.0486 47.9595 47.4397 47.0165 47.4397 46.6735C47.4397 46.6221 48.7716 46.5878 50.389 46.5878H53.3382V45.679C53.3192 43.9986 52.2917 42.7469 50.5792 42.3183C49.6088 42.0782 49.0761 42.0953 48.0296 42.3868V42.3868ZM50.408 44.0501C50.8647 44.2387 51.3213 44.976 51.1501 45.2332C51.074 45.3189 50.2748 45.3875 49.3234 45.3875C47.8012 45.3875 47.63 45.3532 47.63 45.0617C47.63 44.8903 47.8012 44.5473 48.0105 44.3073C48.5433 43.7071 49.3995 43.6043 50.408 44.0501ZM29.7252 42.4726C29.6111 42.5412 29.573 43.9472 29.592 46.1763L29.6491 49.76L30.6576 49.8114L31.647 49.8628V42.4726L31.2284 42.404C30.6766 42.3183 29.9726 42.3525 29.7252 42.4726V42.4726ZM33.2263 42.4726L32.4461 42.5583L33.5878 45.4733C34.1967 47.0679 34.8436 48.714 35.0148 49.1255L35.3193 49.8628L36.3848 49.8114L37.4503 49.76L38.8964 46.1077C39.6956 44.1187 40.3045 42.4726 40.2283 42.4554C39.6385 42.3868 38.1734 42.5412 38.0021 42.6955C37.888 42.8155 37.4694 43.8958 37.0888 45.1132C36.7083 46.3306 36.3658 47.3594 36.3277 47.3937C36.2897 47.428 36.0423 46.6907 35.7569 45.7819C35.4715 44.856 35.11 43.7071 34.9578 43.2099C34.7485 42.5583 34.5772 42.3354 34.3489 42.3525C34.1776 42.3697 33.6639 42.4211 33.2263 42.4726V42.4726Z" fill="black"/>
</svg>
