<svg width="46" height="42" viewBox="0 0 46 42" fill="none" xmlns="http://www.w3.org/2000/svg">
<g clip-path="url(#clip0_42_2)">
<path d="M22.9111 -4C10.2593 -4 0 6.54427 0 19.5517C0 29.9576 6.5647 38.7857 15.668 41.8999C16.813 42.1179 17.2335 41.389 17.2335 40.7669C17.2335 40.2054 17.2121 38.35 17.2024 36.382C10.8283 37.8067 9.48337 33.6032 9.48337 33.6032C8.44118 30.881 6.93953 30.1572 6.93953 30.1572C4.86091 28.6954 7.09622 28.7254 7.09622 28.7254C9.39694 28.8916 10.6084 31.1525 10.6084 31.1525C12.6518 34.7531 15.9681 33.712 17.2755 33.1104C17.4811 31.588 18.0749 30.5492 18.7301 29.9611C13.6413 29.3654 8.29168 27.3459 8.29168 18.3217C8.29168 15.7505 9.1867 13.6494 10.6524 12.0001C10.4145 11.4068 9.63035 9.01146 10.8743 5.76737C10.8743 5.76737 12.7982 5.13436 17.1765 8.18155C19.0039 7.65955 20.964 7.398 22.9111 7.38914C24.8581 7.398 26.8196 7.65955 28.6506 8.18155C33.0237 5.13436 34.9449 5.76737 34.9449 5.76737C36.1919 9.01146 35.4074 11.4068 35.1695 12.0001C36.6385 13.6494 37.5274 15.7503 37.5274 18.3217C37.5274 27.3674 32.1677 29.3593 27.066 29.9422C27.8877 30.6731 28.6199 32.1065 28.6199 34.3037C28.6199 37.4548 28.5933 39.9911 28.5933 40.7669C28.5933 41.3936 29.0057 42.128 30.1672 41.8968C39.2655 38.779 45.8219 29.9541 45.8219 19.5517C45.8219 6.54427 35.5641 -4 22.9111 -4Z" fill="white"/>
<path d="M8.58097 29.5499C8.53066 29.6668 8.35133 29.7019 8.18836 29.6218C8.02215 29.5449 7.92871 29.3853 7.98261 29.2679C8.03203 29.1474 8.21136 29.1138 8.37721 29.1947C8.54378 29.2714 8.63865 29.4324 8.58097 29.5499M9.70797 30.5836C9.59872 30.6877 9.38507 30.6393 9.24007 30.4748C9.09021 30.3106 9.06218 30.0911 9.17304 29.9853C9.28571 29.8813 9.49289 29.9299 9.64311 30.0943C9.79297 30.2603 9.82208 30.4785 9.70779 30.5837M10.4812 31.9061C10.3407 32.0064 10.111 31.9124 9.96924 31.7029C9.8289 31.4936 9.8289 31.2424 9.97229 31.1418C10.1146 31.0411 10.3407 31.1316 10.4844 31.3394C10.6246 31.5524 10.6246 31.8036 10.481 31.9063M11.7886 33.4379C11.663 33.5801 11.3956 33.5421 11.1997 33.3478C10.9996 33.1579 10.9437 32.8884 11.0696 32.746C11.1967 32.6034 11.4657 32.6435 11.663 32.8361C11.8619 33.0256 11.9226 33.2972 11.7888 33.4379M13.4784 33.9551C13.4232 34.1394 13.1655 34.2233 12.9061 34.145C12.6469 34.0643 12.4773 33.8482 12.5296 33.6618C12.5835 33.4761 12.8423 33.3888 13.1037 33.4726C13.3625 33.553 13.5324 33.7674 13.4785 33.9551M15.4017 34.1744C15.4082 34.3687 15.1881 34.5297 14.9157 34.5333C14.6417 34.5393 14.4201 34.3822 14.4172 34.1912C14.4172 33.995 14.6323 33.8354 14.9062 33.8308C15.1786 33.8253 15.4017 33.9813 15.4017 34.1744M17.291 34.0999C17.3237 34.2894 17.1343 34.4841 16.8638 34.5358C16.5979 34.5857 16.3517 34.4688 16.3178 34.2809C16.2847 34.0866 16.4777 33.8921 16.7431 33.8417C17.0141 33.7933 17.2565 33.9073 17.291 34.0999" fill="white"/>
</g>
<defs>
<clipPath id="clip0_42_2">
<rect width="46" height="46" fill="white" transform="translate(0 -4)"/>
</clipPath>
</defs>
</svg>
