<svg width="46" height="46" viewBox="0 0 46 46" fill="none" xmlns="http://www.w3.org/2000/svg">
<g clip-path="url(#clip0_42_8)">
<path d="M-3.8147e-06 5.34349C-3.8147e-06 3.79464 0.518029 2.51686 1.55405 1.51016C2.59007 0.503412 3.93695 6.10352e-05 5.59459 6.10352e-05C7.22266 6.10352e-05 8.53988 0.495652 9.54633 1.48693C10.5823 2.50915 11.1004 3.8411 11.1004 5.48288C11.1004 6.96975 10.5972 8.20877 9.59073 9.20005C8.55471 10.2223 7.19305 10.7334 5.50579 10.7334H5.46139C3.83331 10.7334 2.5161 10.2223 1.50965 9.20005C0.503199 8.17783 -3.8147e-06 6.89229 -3.8147e-06 5.34349ZM0.577216 46V14.9617H10.4344V46H0.577216ZM15.8957 46H25.7529V28.6687C25.7529 27.5845 25.8713 26.7481 26.1081 26.1596C26.5225 25.1064 27.1515 24.2158 27.9952 23.4879C28.8388 22.7599 29.897 22.396 31.1699 22.396C34.4852 22.396 36.1429 24.7347 36.1429 29.4121V46H46V28.2041C46 23.6195 44.964 20.1425 42.8919 17.7728C40.8198 15.4031 38.0817 14.2182 34.6776 14.2182C30.8591 14.2182 27.8842 15.9374 25.7529 19.3758V19.4687H25.7085L25.7529 19.3758V14.9617H15.8957C15.9549 15.9529 15.9846 19.035 15.9846 24.2081C15.9846 29.3811 15.9549 36.6451 15.8957 46Z" fill="white"/>
</g>
<defs>
<clipPath id="clip0_42_8">
<rect width="46" height="46" fill="white"/>
</clipPath>
</defs>
</svg>
