<svg width="80" height="30" viewBox="0 0 80 30" fill="none" xmlns="http://www.w3.org/2000/svg">
<path d="M17.9598 7.35936V16.6428C17.9598 16.7933 17.9118 16.9376 17.8265 17.044C17.7411 17.1504 17.6254 17.2102 17.5047 17.2102H15.154C15.0333 17.2101 14.9176 17.1503 14.8322 17.0439C14.7469 16.9375 14.6989 16.7932 14.6989 16.6428V1.54283C14.6989 1.39235 14.7468 1.24803 14.8322 1.14163C14.9175 1.03522 15.0333 0.975443 15.154 0.975443H17.3293C17.45 0.975443 17.5657 1.03522 17.6511 1.14163C17.7364 1.24803 17.7844 1.39235 17.7844 1.54283V3.66931C17.7844 3.66931 18.562 0.635958 20.8697 0.635958C20.8697 0.635958 23.1524 0.29197 24.0805 3.4504C24.0805 3.4504 24.8581 0.635958 27.216 0.635958C27.216 0.635958 30.7225 0.376028 30.7225 4.89941L30.7492 7.39063V16.6741C30.7492 16.8245 30.7013 16.9689 30.6159 17.0753C30.5306 17.1817 30.4148 17.2414 30.2941 17.2414H27.9432C27.8225 17.2414 27.7068 17.1816 27.6215 17.0752C27.5361 16.9688 27.4881 16.8245 27.4881 16.6741L27.4666 6.5463C27.5334 4.25296 26.0453 4.41982 26.0453 4.41982C24.1724 4.4616 24.3526 7.39063 24.3526 7.39063V16.6741C24.3526 16.8245 24.3046 16.9689 24.2193 17.0753C24.1339 17.1817 24.0182 17.2414 23.8975 17.2414H21.5468C21.4261 17.2414 21.3104 17.1816 21.225 17.0752C21.1397 16.9688 21.0917 16.8245 21.0917 16.6741V6.77545C21.0917 6.77545 21.2291 4.39881 19.5567 4.39881C19.5569 4.39881 17.9014 4.12787 17.9598 7.35936V7.35936ZM78.5537 7.33159V16.6148C78.5537 16.7652 78.5057 16.9095 78.4204 17.0159C78.335 17.1223 78.2193 17.1821 78.0986 17.1822L75.6538 17.2412C75.5331 17.2411 75.4174 17.1813 75.3321 17.0749C75.2467 16.9685 75.1988 16.8243 75.1987 16.6738V6.77545C75.1987 6.77545 75.3362 4.39881 73.664 4.39881C73.664 4.39881 72.0668 4.30074 72.0668 8.02707V16.6425C72.0668 16.793 72.0188 16.9373 71.9334 17.0437C71.8481 17.1501 71.7324 17.2099 71.6117 17.2099H69.2608C69.1401 17.2099 69.0244 17.1501 68.939 17.0437C68.8537 16.9373 68.8057 16.793 68.8057 16.6425V1.54283C68.8057 1.39237 68.8537 1.24809 68.939 1.1417C69.0244 1.03531 69.1401 0.975509 69.2608 0.975443H71.4361C71.5568 0.975443 71.6726 1.03522 71.7579 1.14163C71.8433 1.24803 71.8912 1.39235 71.8912 1.54283V3.66931C71.8912 3.66931 72.6688 0.635958 74.9766 0.635958C74.9766 0.635958 77.4486 0.168385 78.2812 3.39161C78.2814 3.39136 78.5537 4.05632 78.5537 7.33159ZM61.5809 0.573415C58.5748 0.573415 56.1377 3.73185 56.1377 9.04803C56.1377 13.7285 58.019 17.5226 61.5809 17.5226C64.9421 17.5226 67.0241 13.7285 67.0241 9.04803C67.0241 3.82566 64.5872 0.573415 61.5809 0.573415V0.573415ZM63.4782 9.23566C63.4782 11.237 63.2776 12.3003 63.2776 12.3003C62.992 14.416 61.7601 14.419 61.5785 14.4077C61.3824 14.4175 60.1401 14.3955 59.883 12.3003C59.883 12.3003 59.6823 11.237 59.6823 9.23566V8.90217C59.6823 6.90079 59.883 5.83756 59.883 5.83756C60.1401 3.74236 61.3826 3.72034 61.5785 3.72985C61.7601 3.71859 62.992 3.72134 63.2776 5.83756C63.2776 5.83756 63.4782 6.90079 63.4782 8.90217V9.23566ZM54.7733 3.64829V1.48179C54.7732 1.33133 54.7253 1.18705 54.6399 1.08066C54.5546 0.974267 54.4389 0.914467 54.3182 0.9144H46.5481C46.4274 0.9144 46.3117 0.974179 46.2263 1.08059C46.141 1.18699 46.093 1.33131 46.093 1.48179V3.63153C46.0931 3.78199 46.141 3.92627 46.2264 4.03266C46.3117 4.13906 46.4274 4.19886 46.5481 4.19892H50.6011L45.8038 12.8749C45.8038 12.8749 45.6148 13.2267 45.621 13.6152V16.2543C45.621 16.2543 45.5897 17.1591 46.4129 16.634C46.4129 16.634 47.875 15.5328 50.3266 15.5328C50.3266 15.5328 52.7477 15.4952 54.3619 16.7288C54.3619 16.7288 55.032 17.1086 55.032 16.2735V13.9764C55.032 13.9764 55.0928 13.3685 54.4532 12.989C54.4532 12.989 52.5954 11.7171 50.159 11.9258L54.7733 3.64829ZM12.8846 14.5098L12.1487 13.1133C11.9145 12.592 11.9314 12.0081 11.9314 12.0081V5.56637C12.0317 1.78326e-05 7.08174 0.4796 7.08174 0.4796C2.68141 0.4796 2.03143 4.7488 2.03143 4.7488C1.84802 5.60715 2.3814 5.62791 2.3814 5.62791L4.5316 5.89985C4.5316 5.89985 4.89823 6.00442 5.03168 5.46029C5.03168 5.46029 5.31483 3.59776 6.89833 3.59776C8.6213 3.59776 8.60344 5.44128 8.60344 5.44128V6.9846C5.16392 7.12795 3.56998 8.31827 3.56998 8.31827C1.44627 9.81931 1.57992 12.8006 1.57992 12.8006C1.57992 17.658 5.29235 17.4493 5.29235 17.4493C7.6669 17.4493 9.07161 15.2813 9.07161 15.2813C9.48961 16.199 10.259 17.0741 10.259 17.0741C10.6439 17.5944 11.045 17.1576 11.045 17.1576L12.7842 15.3024C13.1687 14.9476 12.8846 14.5098 12.8846 14.5098ZM6.45123 14.4498C5.33429 14.4498 4.9191 13.0661 5.10452 11.7061C5.29014 10.3462 6.25417 9.27743 8.60364 9.30871V10.1355C8.68692 13.7475 7.38095 14.4498 6.45123 14.4498ZM44.1224 14.5098L43.3867 13.1133C43.1526 12.592 43.1692 12.0081 43.1692 12.0081V5.56637C43.2696 1.78326e-05 38.3196 0.4796 38.3196 0.4796C33.9192 0.4796 33.2693 4.7488 33.2693 4.7488C33.0858 5.60715 33.6192 5.62791 33.6192 5.62791L35.7694 5.89985C35.7694 5.89985 36.1361 6.00442 36.2695 5.46029C36.2695 5.46029 36.5527 3.59776 38.1362 3.59776C39.8591 3.59776 39.8413 5.44128 39.8413 5.44128V6.9846C36.4019 7.12795 34.8078 8.31827 34.8078 8.31827C32.6841 9.81931 32.8177 12.8006 32.8177 12.8006C32.8177 17.658 36.5302 17.4493 36.5302 17.4493C38.9047 17.4493 40.3094 15.2813 40.3094 15.2813C40.7276 16.199 41.4966 17.0741 41.4966 17.0741C41.8815 17.5944 42.2828 17.1576 42.2828 17.1576L44.0219 15.3024C44.4066 14.9476 44.1224 14.5098 44.1224 14.5098V14.5098ZM37.6891 14.4498C36.5721 14.4498 36.1569 13.0661 36.3424 11.7061C36.528 10.3462 37.492 9.27743 39.8413 9.30871V10.1355C39.9247 13.7475 38.619 14.4498 37.6891 14.4498Z" fill="black"/>
<path d="M50.0414 26.7027C50.0414 26.7027 49.8448 27.1293 50.0864 27.2246C50.0864 27.2246 50.3593 27.3574 50.6996 26.9637C50.6996 26.9637 53.1817 24.2605 53.2415 19.3391C53.2415 19.3391 53.2598 18.7245 53.0619 18.5563C53.0619 18.5563 52.2843 17.6988 49.4882 17.9597C49.4882 17.9597 47.0508 18.1648 45.7202 19.6376C45.7202 19.6376 45.6006 19.7679 45.6006 19.9355C45.6006 19.9355 45.5719 20.2976 46.3033 20.1407C46.3033 20.1407 48.7405 19.7116 50.1909 19.9355C50.1909 19.9355 50.9388 20.0474 51.1481 20.3646C51.1481 20.3646 51.4921 20.7188 51.3125 21.8929C51.3125 21.8934 50.8188 24.876 50.0414 26.7027V26.7027Z" fill="#F3971B"/>
<path d="M49.55 21.9812C49.55 21.9812 49.914 22.5691 49.3267 23.0762C49.3267 23.0762 43.0522 29.3331 32.5169 29.3331C32.5169 29.3331 21.6722 30 12.6169 19.7429C12.6169 19.7429 12.2994 19.3954 12.4965 19.0725C12.4965 19.0725 12.6727 18.7753 13.1288 19.0985C13.1288 19.0985 21.6471 25.7158 32.8346 25.7158C32.8346 25.7158 40.6107 26.0911 48.5874 21.8381C48.5874 21.8381 49.2229 21.4276 49.55 21.9812Z" fill="#F3971B"/>
</svg>
