<svg width="46" height="46" viewBox="0 0 46 46" fill="none" xmlns="http://www.w3.org/2000/svg">
<g clip-path="url(#clip0_10_32)">
<path d="M0.0197754 45.9805H45.9805V0.0197754H0.0197754V45.9805Z" fill="#00A651" stroke="black" stroke-width="0.982367" stroke-miterlimit="2.613"/>
<path d="M22.9937 44.2728C34.7503 44.2728 44.3385 34.7233 44.3385 23.0063C44.3385 11.2896 34.7497 1.74017 22.9937 1.74017C11.2377 1.74017 1.66187 11.2896 1.66187 23.0063C1.66158 34.7233 11.2374 44.2728 22.9937 44.2728Z" fill="white" stroke="black" stroke-width="0.982367" stroke-miterlimit="2.613"/>
<path d="M29.1408 12.4326C33.0422 14.5081 35.6824 18.4748 35.6824 23.0063C35.6824 27.5381 33.0422 31.5049 29.1408 33.5806H35.4197V38.69H10.436V33.5806H16.8462C12.9448 31.5051 10.3049 27.5384 10.3049 23.0063C10.3049 18.4748 12.9451 14.5081 16.8462 12.4326H10.436V7.32315H35.4194V12.4326H29.1408V12.4326Z" fill="#00A651" stroke="black" stroke-width="0.982367" stroke-miterlimit="2.613"/>
<path d="M22.9937 30.2443C26.9478 30.2443 30.1654 26.9871 30.1654 23.0066C30.1654 19.0266 26.9475 15.7692 22.9937 15.7692C19.053 15.7692 15.8217 19.0266 15.8217 23.0066C15.8217 26.9862 19.053 30.2443 22.9937 30.2443Z" fill="white" stroke="black" stroke-width="0.982367" stroke-miterlimit="2.613"/>
</g>
<defs>
<clipPath id="clip0_10_32">
<rect width="46" height="46" fill="white"/>
</clipPath>
</defs>
</svg>
