<svg width="80" height="30" viewBox="0 0 80 30" fill="none" xmlns="http://www.w3.org/2000/svg">
<g clip-path="url(#clip0_81_8)">
<path d="M4.60265 21.4247C4.94072 22.3938 5.40877 23.2223 6.00689 23.9103C6.60501 24.5985 7.31361 25.1251 8.13268 25.4902C8.95183 25.8554 9.84245 26.0379 10.8046 26.0379C11.7408 26.0379 12.6184 25.8483 13.4376 25.4691C14.2567 25.0898 14.9718 24.5563 15.5828 23.8682C16.1939 23.1801 16.6685 22.3586 17.0066 21.4037C17.3447 20.4487 17.5137 19.3816 17.5137 18.2019V0.0020752H21.6093V29.4924H17.5527V26.754C16.6425 27.7931 15.5698 28.5936 14.3347 29.1554C13.0994 29.7171 11.7668 29.9979 10.3366 29.9979C8.88028 29.9979 7.52161 29.7241 6.26038 29.1764C4.99924 28.6287 3.907 27.8494 2.98393 26.8383C2.06086 25.8271 1.33267 24.6126 0.799628 23.1941C0.266499 21.7758 -2.28882e-05 20.196 -2.28882e-05 18.4546V0.0020752H4.09559V18.2019C4.09559 19.3816 4.26458 20.4557 4.60265 21.4247ZM28.669 0.0020752V10.745C29.5791 9.76196 30.6323 8.98265 31.8285 8.40683C33.0246 7.83101 34.3249 7.54315 35.729 7.54315C37.1853 7.54315 38.5504 7.83801 39.8246 8.4278C41.0988 9.0176 42.2039 9.81808 43.1401 10.8292C44.0763 11.8404 44.8174 13.034 45.3635 14.4102C45.9096 15.7865 46.1826 17.2469 46.1826 18.7917C46.1826 20.3363 45.9096 21.7898 45.3635 23.1519C44.8174 24.5141 44.0763 25.7008 43.1401 26.7118C42.2039 27.7229 41.0988 28.5234 39.8246 29.1132C38.5504 29.703 37.1852 29.9978 35.729 29.9978C34.3248 29.9978 33.0182 29.71 31.809 29.1342C30.5998 28.5584 29.5401 27.779 28.63 26.796V29.4923H24.7294V0.0020752H28.669ZM29.1175 21.6985C29.4685 22.5973 29.9562 23.3837 30.5803 24.0578C31.2044 24.7319 31.9325 25.2656 32.7646 25.6588C33.5968 26.052 34.4939 26.2486 35.456 26.2486C36.3922 26.2486 37.2763 26.052 38.1084 25.6588C38.9405 25.2656 39.662 24.732 40.2733 24.0578C40.8843 23.3838 41.3719 22.5973 41.736 21.6985C42.1 20.7998 42.282 19.8309 42.282 18.7917C42.282 17.7524 42.1 16.7764 41.736 15.8636C41.3719 14.9508 40.8843 14.1574 40.2733 13.4834C39.6621 12.8094 38.9406 12.2827 38.1084 11.9036C37.2762 11.5245 36.3921 11.3348 35.456 11.3348C34.5199 11.3348 33.6358 11.5244 32.8037 11.9036C31.9716 12.2828 31.2435 12.8094 30.6193 13.4834C29.9953 14.1574 29.5012 14.9508 29.1371 15.8636C28.7731 16.7764 28.591 17.7524 28.591 18.7917C28.591 19.8309 28.7665 20.7998 29.1175 21.6985V21.6985ZM48.4055 14.4524C48.9256 13.1042 49.6408 11.9177 50.5508 10.8925C51.4609 9.86739 52.5402 9.05992 53.7884 8.47013C55.0366 7.88033 56.3888 7.58547 57.845 7.58547C59.2752 7.58547 60.6014 7.86634 61.8236 8.42799C63.0457 8.98973 64.0989 9.76914 64.983 10.7662C65.8672 11.7632 66.5564 12.9429 67.0503 14.305C67.5444 15.6672 67.7914 17.1488 67.7914 18.7497V20.14H51.6041C51.7341 21.0107 51.9942 21.8181 52.3842 22.5623C52.7743 23.3066 53.2618 23.9526 53.8469 24.5002C54.432 25.048 55.0951 25.4763 55.8362 25.7852C56.5773 26.0941 57.3639 26.2487 58.1961 26.2487C60.5625 26.2487 62.4738 25.1954 63.93 23.0889L66.7774 25.3638C65.7892 26.7962 64.5671 27.9197 63.1109 28.7342C61.6546 29.5486 60.0164 29.9559 58.1961 29.9559C56.7139 29.9559 55.3292 29.6749 54.042 29.1133C52.7548 28.5516 51.6367 27.7651 50.6875 26.754C49.7384 25.7428 48.9908 24.5563 48.4447 23.1941C47.8987 21.832 47.6256 20.3504 47.6256 18.7495C47.6254 17.2329 47.8855 15.8005 48.4055 14.4524V14.4524ZM53.8859 12.7882C52.7807 13.7853 52.0461 15.1124 51.6821 16.7694H63.8129C63.4749 15.1124 62.7532 13.7853 61.6481 12.7882C60.5429 11.7913 59.2492 11.2927 57.767 11.2927C56.2848 11.2927 54.9911 11.7913 53.8859 12.7882V12.7882ZM75.1633 13.2727C74.3312 14.2557 73.9151 15.5898 73.9151 17.275V29.4925H69.9755V8.00664H73.876V10.6608C74.3701 9.79011 75.0138 9.10197 75.8068 8.59644C76.5999 8.09082 77.5426 7.83801 78.6348 7.83801H80V11.7982H78.3618C77.0616 11.7982 75.9954 12.2897 75.1633 13.2727Z" fill="#010202"/>
</g>
<defs>
<clipPath id="clip0_81_8">
<rect width="80" height="30" fill="white"/>
</clipPath>
</defs>
</svg>
