<svg width="80" height="50" viewBox="0 0 80 50" fill="none" xmlns="http://www.w3.org/2000/svg">
<path d="M3.05176e-05 26.8916H6.08848L9.47174 8.28238H3.3825L3.05176e-05 26.8916ZM3.71796 6.06284H9.8319L10.8367 0.495056H4.72513L3.71796 6.06284ZM8.4566 32.1281H14.5458L18.2662 12.0227H22.8327L23.506 8.28238H19.0271L19.1968 7.44091C19.4502 5.8549 19.9578 4.07416 22.2407 4.07416C23.5952 4.07416 24.863 4.16756 26.1307 4.82223L26.808 0.895083C25.3952 0.343833 23.9086 0.0590836 22.4104 0.0527344C17.5052 0.0527344 14.1235 3.23269 12.8542 8.28238H10.7403L10.0638 12.0227H12.1777L8.4566 32.1281Z" fill="#EA1D2C"/>
<path d="M27.7379 27.2661C34.9259 27.2661 39.9156 20.0647 39.9156 14.1736C39.9156 9.77857 36.2789 7.90795 32.7275 7.90795C24.8606 7.90795 20.5498 15.6741 20.5498 21.0005C20.5498 25.3955 24.2709 27.2661 27.7379 27.2661M47.0207 27.2661C54.2088 27.2661 59.1984 20.0647 59.1984 14.1736C59.1984 9.77857 55.4773 7.90795 51.9251 7.90795C44.0606 7.90795 39.7482 15.6697 39.7482 21.0005C39.7482 25.3955 43.5538 27.2661 47.0207 27.2661M69.0924 26.8916H75.0964L80 0.430786H73.9116L72.4733 8.28595L69.9363 8.00576C64.0167 8.00576 58.6048 16.4213 58.6048 22.4068C58.6048 24.8378 60.0391 27.2696 62.4948 27.2696C65.9618 27.2696 68.4144 25.399 69.4271 23.5284H69.765L69.0924 26.8916ZM50.3171 40.8256C45.5911 45.1557 39.521 47.27 33.404 46.7168C25.3697 46.1555 19.6191 39.3286 18.6048 32.1281H18.9426C20.8032 36.6218 25.2853 40.8256 30.7825 41.4794C36.3602 42.2275 43.0446 39.4229 46.6805 35.5883L42.6215 32.1281H54.8837L52.1745 46.53L50.3984 40.919L50.3171 40.8256Z" fill="#EA1D2C"/>
</svg>
